[Header]
FileType HTR
DataType HTRS
FileVersion 1
NumSegments 64
NumFrames 4
DataFrameRate 30
EulerRotationOrder ZYX
CalibrationUnits mm
RotationUnits Degrees
GlobalAxisofGravity Y
BoneLengthAxis Y
ScaleFactor 1.0
[SegmentNames&Hierarchy]
Hips	GLOBAL
Spine	Hips
Spine1	Spine
Spine2	Spine1
Neck	Spine2
Head	Neck
LeftEye	Head
RightEye	Head
LeftShoulder	Spine2
LeftArm	LeftShoulder
LeftForeArm	LeftArm
LeftHand	LeftForeArm
LeftHandThumb1	LeftHand
LeftHandThumb2	LeftHandThumb1
LeftHandThumb3	LeftHandThumb2
LeftHandThumb4	LeftHandThumb3
LeftHandIndex1	LeftHand
LeftHandIndex2	LeftHandIndex1
LeftHandIndex3	LeftHandIndex2
LeftHandIndex4	LeftHandIndex3
LeftHandMiddle1	LeftHand
LeftHandMiddle2	LeftHandMiddle1
LeftHandMiddle3	LeftHandMiddle2
LeftHandMiddle4	LeftHandMiddle3
LeftHandRing1	LeftHand
LeftHandRing2	LeftHandRing1
LeftHandRing3	LeftHandRing2
LeftHandRing4	LeftHandRing3
LeftHandPinky1	LeftHand
LeftHandPinky2	LeftHandPinky1
LeftHandPinky3	LeftHandPinky2
LeftHandPinky4	LeftHandPinky3
RightShoulder	Spine2
RightArm	RightShoulder
RightForeArm	RightArm
RightHand	RightForeArm
RightHandPinky1	RightHand
RightHandPinky2	RightHandPinky1
RightHandPinky3	RightHandPinky2
RightHandPinky4	RightHandPinky3
RightHandRing1	RightHand
RightHandRing2	RightHandRing1
RightHandRing3	RightHandRing2
RightHandRing4	RightHandRing3
RightHandMiddle1	RightHand
RightHandMiddle2	RightHandMiddle1
RightHandMiddle3	RightHandMiddle2
RightHandMiddle4	RightHandMiddle3
RightHandIndex1	RightHand
RightHandIndex2	RightHandIndex1
RightHandIndex3	RightHandIndex2
RightHandIndex4	RightHandIndex3
RightHandThumb1	RightHand
RightHandThumb2	RightHandThumb1
RightHandThumb3	RightHandThumb2
RightHandThumb4	RightHandThumb3
LeftUpLeg	Hips
LeftLeg	LeftUpLeg
LeftFoot	LeftLeg
LeftToeBase	LeftFoot
RightUpLeg	Hips
RightLeg	RightUpLeg
RightFoot	RightLeg
RightToeBase	RightFoot
[BasePosition]
Hips	0	0	0	0	0	0	1
Spine	0	0	0	0	0	0	1
Spine1	0	0	0	0	0	0	1
Spine2	0	0	0	0	0	0	1
Neck	0	0	0	0	0	0	1
Head	0	0	0	0	0	0	1
LeftEye	0	0	0	0	0	0	1
RightEye	0	0	0	0	0	0	1
LeftShoulder	0	0	0	0	0	0	1
LeftArm	0	0	0	0	0	0	1
LeftForeArm	0	0	0	0	0	0	1
LeftHand	0	0	0	0	0	0	1
LeftHandThumb1	0	0	0	0	0	0	1
LeftHandThumb2	0	0	0	0	0	0	1
LeftHandThumb3	0	0	0	0	0	0	1
LeftHandThumb4	0	0	0	0	0	0	1
LeftHandIndex1	0	0	0	0	0	0	1
LeftHandIndex2	0	0	0	0	0	0	1
LeftHandIndex3	0	0	0	0	0	0	1
LeftHandIndex4	0	0	0	0	0	0	1
LeftHandMiddle1	0	0	0	0	0	0	1
LeftHandMiddle2	0	0	0	0	0	0	1
LeftHandMiddle3	0	0	0	0	0	0	1
LeftHandMiddle4	0	0	0	0	0	0	1
LeftHandRing1	0	0	0	0	0	0	1
LeftHandRing2	0	0	0	0	0	0	1
LeftHandRing3	0	0	0	0	0	0	1
LeftHandRing4	0	0	0	0	0	0	1
LeftHandPinky1	0	0	0	0	0	0	1
LeftHandPinky2	0	0	0	0	0	0	1
LeftHandPinky3	0	0	0	0	0	0	1
LeftHandPinky4	0	0	0	0	0	0	1
RightShoulder	0	0	0	0	0	0	1
RightArm	0	0	0	0	0	0	1
RightForeArm	0	0	0	0	0	0	1
RightHand	0	0	0	0	0	0	1
RightHandPinky1	0	0	0	0	0	0	1
RightHandPinky2	0	0	0	0	0	0	1
RightHandPinky3	0	0	0	0	0	0	1
RightHandPinky4	0	0	0	0	0	0	1
RightHandRing1	0	0	0	0	0	0	1
RightHandRing2	0	0	0	0	0	0	1
RightHandRing3	0	0	0	0	0	0	1
RightHandRing4	0	0	0	0	0	0	1
RightHandMiddle1	0	0	0	0	0	0	1
RightHandMiddle2	0	0	0	0	0	0	1
RightHandMiddle3	0	0	0	0	0	0	1
RightHandMiddle4	0	0	0	0	0	0	1
RightHandIndex1	0	0	0	0	0	0	1
RightHandIndex2	0	0	0	0	0	0	1
RightHandIndex3	0	0	0	0	0	0	1
RightHandIndex4	0	0	0	0	0	0	1
RightHandThumb1	0	0	0	0	0	0	1
RightHandThumb2	0	0	0	0	0	0	1
RightHandThumb3	0	0	0	0	0	0	1
RightHandThumb4	0	0	0	0	0	0	1
LeftUpLeg	0	0	0	0	0	0	1
LeftLeg	0	0	0	0	0	0	1
LeftFoot	0	0	0	0	0	0	1
LeftToeBase	0	0	0	0	0	0	1
RightUpLeg	0	0	0	0	0	0	1
RightLeg	0	0	0	0	0	0	1
RightFoot	0	0	0	0	0	0	1
RightToeBase	0	0	0	0	0	0	1
[Hips]
59 	-9.915805817	1031.21936	-16.70431328	-3.623519421	-0.2723937035	-3.885030746	1.0
60 	-9.156650543	1031.934937	-15.38739586	-3.258616924	-0.8107838035	-3.717196703	1.0
61 	-8.44317627	1032.483887	-13.83325005	-2.97761488	-1.373371482	-3.56096673	1.0
62 	-7.729878902	1032.887451	-12.07533455	-2.762017965	-1.929402232	-3.421886921	1.0
[Spine]
59 	0	101.8159943	1.315000057	4.347929478	1.898611546	2.690582275	1.0
60 	0	101.8159943	1.315000057	4.347248077	1.847043514	2.719800472	1.0
61 	0	101.8159943	1.315000057	4.344411373	1.780231595	2.760847092	1.0
62 	0	101.8159943	1.315000057	4.340478897	1.70843339	2.80701232	1.0
[Spine1]
59 	0	100.8349991	-10.00800037	1.630752683	1.030724764	1.264250398	1.0
60 	0	100.8349991	-10.00800037	1.626952767	0.9556702971	1.328451991	1.0
61 	0	100.8349991	-10.00800037	1.627951026	0.8595010042	1.394990802	1.0
62 	0	100.8349991	-10.00800037	1.62820816	0.7568674088	1.458271861	1.0
[Spine2]
59 	0	91	-13.73399925	1.600252271	1.066945314	1.285250902	1.0
60 	0	91	-13.73399925	1.596328139	0.991042614	1.349169374	1.0
61 	0	91	-13.73399925	1.597182989	0.8936145902	1.415180683	1.0
62 	0	91	-13.73399925	1.597293258	0.789624989	1.477802753	1.0
[Neck]
59 	0	166.7169952	-25.16200066	5.083922863	-1.05519104	1.404236317	1.0
60 	0	166.7169952	-25.16200066	5.102273941	-0.8953675032	1.296926618	1.0
61 	0	166.7169952	-25.16200066	5.105472088	-0.7342754006	1.191242099	1.0
62 	0	166.7169952	-25.16200066	5.113954544	-0.5839901567	1.09900105	1.0
[Head]
59 	0	96.17900085	16.84999847	-10.40804482	-4.016071796	4.573304176	1.0
60 	0	96.17900085	16.84999847	-10.28074932	-3.334230185	4.232644081	1.0
61 	0	96.17900085	16.84999847	-10.19615269	-2.612893105	3.806029081	1.0
62 	0	96.17900085	16.84999847	-10.13809109	-1.916018844	3.368024111	1.0
[LeftEye]
59 	30.6760006	64.09500122	92.83599854	0	0	0	1.0
60 	30.6760006	64.09500122	92.83599854	0	0	0	1.0
61 	30.6760006	64.09500122	92.83599854	0	0	0	1.0
62 	30.6760006	64.09500122	92.83599854	0	0	0	1.0
[RightEye]
59 	-30.6760006	64.09500122	92.83499908	0	0	0	1.0
60 	-30.6760006	64.09500122	92.83499908	0	0	0	1.0
61 	-30.6760006	64.09500122	92.83499908	0	0	0	1.0
62 	-30.6760006	64.09500122	92.83499908	0	0	0	1.0
[LeftShoulder]
59 	45.70400238	109.4599991	-26.28000069	4.656028748	-15.79146385	-13.17775726	1.0
60 	45.70400238	109.4599991	-26.28000069	4.693781853	-15.97268295	-13.14045429	1.0
61 	45.70400238	109.4599991	-26.28000069	4.752204418	-16.24569511	-13.09526348	1.0
62 	45.70400238	109.4599991	-26.28000069	4.810898781	-16.50756454	-13.06887245	1.0
[LeftArm]
59 	105.923996	-5.24600029	-22.32099915	14.98163795	-2.289534092	-67.98330688	1.0
60 	105.923996	-5.24600029	-22.32099915	15.36675262	-3.011719227	-68.22693634	1.0
61 	105.923996	-5.24600029	-22.32099915	16.40486336	-3.554853201	-68.47457886	1.0
62 	105.923996	-5.24600029	-22.32099915	17.79257011	-4.03666687	-68.71203613	1.0
[LeftForeArm]
59 	278.414978	-0.0009999999311	0	1.091796321e-06	-0.3313112259	-0.0002116682008	1.0
60 	278.414978	-0.0009999999311	0	2.205805231e-06	-0.6107215881	-0.0002253367711	1.0
61 	278.414978	-0.0009999999311	0	9.386211786e-06	-1.137378573	-0.0002037845115	1.0
62 	278.414978	-0.0009999999311	0	1.407291279e-06	-1.737489939	-0.0002148932108	1.0
[LeftHand]
59 	283.2879944	0	0	-32.0530777	-2.203453064	-2.111140251	1.0
60 	283.2879944	0	0	-32.97117233	-2.813585997	-1.887862563	1.0
61 	283.2879944	0	0	-34.1449852	-3.713269711	-1.683804035	1.0
62 	283.2879944	0	0	-35.19821167	-4.661928177	-1.53837204	1.0
[LeftHandThumb1]
59 	24.6609993	-15.75	26.8239994	0.9237157106	5.59766531	6.048311234	1.0
60 	24.6609993	-15.75	26.8239994	-0.2079335302	4.970570087	6.324970245	1.0
61 	24.6609993	-15.75	26.8239994	-1.208820105	4.339308262	6.528576851	1.0
62 	24.6609993	-15.75	26.8239994	-2.018695593	3.757452011	6.659886837	1.0
[LeftHandThumb2]
59 	32.29800034	-18.64699936	18.64699936	19.83459663	19.14375496	24.90639496	1.0
60 	32.29800034	-18.64699936	18.64699936	19.85572052	19.40950203	24.38934898	1.0
61 	32.29800034	-18.64699936	18.64699936	19.87266541	19.65578651	23.89893913	1.0
62 	32.29800034	-18.64699936	18.64699936	19.88560104	19.86066246	23.48450279	1.0
[LeftHandThumb3]
59 	26.52600098	-15.31499958	15.31499958	-13.65147591	6.641614914	8.636089325	1.0
60 	26.52600098	-15.31499958	15.31499958	-13.53096485	6.361882687	8.533133507	1.0
61 	26.52600098	-15.31499958	15.31499958	-13.41160488	6.089611053	8.415086746	1.0
62 	26.52600098	-15.31499958	15.31499958	-13.30009556	5.842361927	8.28425312	1.0
[LeftHandThumb4]
59 	19.54599953	-11.28499985	11.28499985	0	0	0	1.0
60 	19.54599953	-11.28499985	11.28499985	0	0	0	1.0
61 	19.54599953	-11.28499985	11.28499985	0	0	0	1.0
62 	19.54599953	-11.28499985	11.28499985	0	0	0	1.0
[LeftHandIndex1]
59 	91.09299469	-5.170999527	22.60099792	0.8305022717	0.9505932927	-11.27322388	1.0
60 	91.09299469	-5.170999527	22.60099792	0.713170886	0.6229861975	-10.64236164	1.0
61 	91.09299469	-5.170999527	22.60099792	0.5979787111	0.2944100499	-9.983208656	1.0
62 	91.09299469	-5.170999527	22.60099792	0.499450624	-0.0103095863	-9.291518211	1.0
[LeftHandIndex2]
59 	36.76399994	0	0	-0.2617610097	1.729306221	-17.21343613	1.0
60 	36.76399994	0	0	-0.2622857392	1.730999589	-17.2308445	1.0
61 	36.76399994	0	0	-0.2627447546	1.732479095	-17.24603271	1.0
62 	36.76399994	0	0	-0.2627603412	1.732529163	-17.24655342	1.0
[LeftHandIndex3]
59 	28.83100128	0	0	-0.05510557443	0.8007132411	-7.873790741	1.0
60 	28.83100128	0	0	-0.05535515025	0.802515626	-7.89162302	1.0
61 	28.83100128	0	0	-0.05557366833	0.8040867448	-7.907184601	1.0
62 	28.83100128	0	0	-0.05553571507	0.8038061857	-7.904420376	1.0
[LeftHandIndex4]
59 	23.92700005	0	0	0	0	0	1.0
60 	23.92700005	0	0	0	0	0	1.0
61 	23.92700005	0	0	0	0	0	1.0
62 	23.92700005	0	0	0	0	0	1.0
[LeftHandMiddle1]
59 	95.33399963	0	0	-1.225861549	3.782377958	-21.69982147	1.0
60 	95.33399963	0	0	-1.173616409	3.367855787	-21.01686478	1.0
61 	95.33399963	0	0	-1.118206382	3.00581789	-20.28223991	1.0
62 	95.33399963	0	0	-1.061306596	2.69694829	-19.51698494	1.0
[LeftHandMiddle2]
59 	36.98199844	0	0	-0.2770272195	1.777812481	-17.71232986	1.0
60 	36.98199844	0	0	-0.2764354348	1.775963426	-17.69329834	1.0
61 	36.98199844	0	0	-0.2759752274	1.774519444	-17.67839622	1.0
62 	36.98199844	0	0	-0.2754710019	1.772934437	-17.66209984	1.0
[LeftHandMiddle3]
59 	29.50900078	0	0	-0.3092926145	1.875792027	-18.72444534	1.0
60 	29.50900078	0	0	-0.3086719513	1.873960972	-18.70547676	1.0
61 	29.50900078	0	0	-0.308226496	1.872648835	-18.69189072	1.0
62 	29.50900078	0	0	-0.3077452481	1.871228933	-18.67716599	1.0
[LeftHandMiddle4]
59 	28.3390007	0	0	0	0	0	1.0
60 	28.3390007	0	0	0	0	0	1.0
61 	28.3390007	0	0	0	0	0	1.0
62 	28.3390007	0	0	0	0	0	1.0
[LeftHandRing1]
59 	91.04499817	-0.4390000105	-18.65100098	-1.592232347	4.267194748	-26.31311607	1.0
60 	91.04499817	-0.4390000105	-18.65100098	-1.535668731	4.063591003	-25.62635422	1.0
61 	91.04499817	-0.4390000105	-18.65100098	-1.479275942	3.864754915	-24.93260765	1.0
62 	91.04499817	-0.4390000105	-18.65100098	-1.421954155	3.673808336	-24.21949387	1.0
[LeftHandRing2]
59 	31.54000092	0	0	-0.4571100771	2.265297651	-22.81391907	1.0
60 	31.54000092	0	0	-0.4532771707	2.256178856	-22.71681213	1.0
61 	31.54000092	0	0	-0.4497132599	2.247653008	-22.62610817	1.0
62 	31.54000092	0	0	-0.4457743168	2.23818469	-22.52547073	1.0
[LeftHandRing3]
59 	29.37700081	0	0	-0.3435640633	1.973953128	-19.74466324	1.0
60 	29.37700081	0	0	-0.3404632509	1.965306044	-19.65452385	1.0
61 	29.37700081	0	0	-0.3376083076	1.957299829	-19.57111931	1.0
62 	29.37700081	0	0	-0.3344202936	1.948316216	-19.47759247	1.0
[LeftHandRing4]
59 	26.47500038	0	0	0	0	0	1.0
60 	26.47500038	0	0	0	0	0	1.0
61 	26.47500038	0	0	0	0	0	1.0
62 	26.47500038	0	0	0	0	0	1.0
[LeftHandPinky1]
59 	80.77799988	-4.887000084	-38.06099701	-1.937038183	6.139015675	-29.66481781	1.0
60 	80.77799988	-4.887000084	-38.06099701	-1.883819938	5.889835835	-29.12995338	1.0
61 	80.77799988	-4.887000084	-38.06099701	-1.83525753	5.66562748	-28.61157799	1.0
62 	80.77799988	-4.887000084	-38.06099701	-1.794090748	5.470898151	-28.13501358	1.0
[LeftHandPinky2]
59 	36	0	0	-0.2752361894	1.772196531	-17.65449715	1.0
60 	36	0	0	-0.2748512924	1.770987034	-17.64204597	1.0
61 	36	0	0	-0.2743341029	1.769365191	-17.62534904	1.0
62 	36	0	0	-0.2737109959	1.767399669	-17.60512543	1.0
[LeftHandPinky3]
59 	21.14200211	0	0	-0.2473737746	1.682195425	-16.73019981	1.0
60 	21.14200211	0	0	-0.2472615987	1.681818724	-16.72633553	1.0
61 	21.14200211	0	0	-0.2469892204	1.680910349	-16.71703529	1.0
62 	21.14200211	0	0	-0.2465620637	1.679489493	-16.70248032	1.0
[LeftHandPinky4]
59 	19.75699997	0	0	0	0	0	1.0
60 	19.75699997	0	0	0	0	0	1.0
61 	19.75699997	0	0	0	0	0	1.0
62 	19.75699997	0	0	0	0	0	1.0
[RightShoulder]
59 	-45.70000076	109.4620056	-26.28000069	5.116728783	14.11492348	16.00021362	1.0
60 	-45.70000076	109.4620056	-26.28000069	5.149139881	14.25625515	15.93168068	1.0
61 	-45.70000076	109.4620056	-26.28000069	5.184557438	14.40156746	15.88805294	1.0
62 	-45.70000076	109.4620056	-26.28000069	5.209694386	14.50001144	15.87269688	1.0
[RightArm]
59 	-105.9280014	-5.248000145	-22.32099915	29.39944267	0.3135177195	61.73466492	1.0
60 	-105.9280014	-5.248000145	-22.32099915	30.40434265	0.8071414232	61.64043427	1.0
61 	-105.9280014	-5.248000145	-22.32099915	31.35342407	1.268764377	61.55491638	1.0
62 	-105.9280014	-5.248000145	-22.32099915	32.03956223	1.666636348	61.49416733	1.0
[RightForeArm]
59 	-278.414978	0	0	-1.282566473e-06	6.586824417	-1.563119895e-06	1.0
60 	-278.414978	0	0	2.757164111e-06	6.831386566	6.060428404e-06	1.0
61 	-278.414978	0	0	-1.609045739e-06	7.076719284	4.370509942e-06	1.0
62 	-278.414978	0	0	1.512595986e-07	7.228026867	1.726580194e-05	1.0
[RightHand]
59 	-283.2879944	0	0.0009999999311	-20.61552238	1.664549947	7.54697752	1.0
60 	-283.2879944	0	0.0009999999311	-20.32981491	1.777512074	7.728364468	1.0
61 	-283.2879944	0	0.0009999999311	-19.31983185	1.672328949	7.488015652	1.0
62 	-283.2879944	0	0.0009999999311	-18.35057068	1.506587505	7.079050064	1.0
[RightHandPinky1]
59 	-80.76699829	-4.885000229	-38.06000137	-1.60368681	-5.292486191	27.05571747	1.0
60 	-80.76699829	-4.885000229	-38.06000137	-1.667705297	-5.384758949	27.86631584	1.0
61 	-80.76699829	-4.885000229	-38.06000137	-1.696018457	-5.273146152	28.45941925	1.0
62 	-80.76699829	-4.885000229	-38.06000137	-1.676249027	-5.113762379	28.42033195	1.0
[RightHandPinky2]
59 	-36	0	0.0009999999311	-0.231055662	-1.445854664	18.17720413	1.0
60 	-36	0	0.0009999999311	-0.2286187857	-1.438429713	18.08064079	1.0
61 	-36	0	0.0009999999311	-0.2264319658	-1.431695104	17.99315262	1.0
62 	-36	0	0.0009999999311	-0.2246493101	-1.426205993	17.92177391	1.0
[RightHandPinky3]
59 	-21.14200211	0	0	-0.2093273401	-1.377860427	17.27571106	1.0
60 	-21.14200211	0	0	-0.207008183	-1.370391488	17.17913818	1.0
61 	-21.14200211	0	0	-0.2049214393	-1.363633633	17.0916748	1.0
62 	-21.14200211	0	0	-0.203225106	-1.358098745	17.02032471	1.0
[RightHandPinky4]
59 	-19.75699997	0	0	0	0	0	1.0
60 	-19.75699997	0	0	0	0	0	1.0
61 	-19.75699997	0	0	0	0	0	1.0
62 	-19.75699997	0	0	0	0	0	1.0
[RightHandRing1]
59 	-91.03599548	-0.4390000105	-18.65100098	-1.133089542	-1.984215021	21.81985664	1.0
60 	-91.03599548	-0.4390000105	-18.65100098	-1.134557605	-2.306767225	21.83240509	1.0
61 	-91.03599548	-0.4390000105	-18.65100098	-1.126330853	-2.614493132	21.70290375	1.0
62 	-91.03599548	-0.4390000105	-18.65100098	-1.10162735	-2.80218482	21.33038139	1.0
[RightHandRing2]
59 	-31.54000092	0	0	-0.3323541582	-1.723932743	21.81488037	1.0
60 	-31.54000092	0	0	-0.3172176778	-1.685972095	21.3098793	1.0
61 	-31.54000092	0	0	-0.3070299625	-1.659635067	20.96096611	1.0
62 	-31.54000092	0	0	-0.3017767072	-1.645863295	20.77878952	1.0
[RightHandRing3]
59 	-29.37700081	0	0	-0.2468287349	-1.492735744	18.7685585	1.0
60 	-29.37700081	0	0	-0.2336902767	-1.453888535	18.26187897	1.0
61 	-29.37700081	0	0	-0.2248808146	-1.426909566	17.91134262	1.0
62 	-29.37700081	0	0	-0.2203336805	-1.412764311	17.72787857	1.0
[RightHandRing4]
59 	-26.47500038	0	0	0	0	0	1.0
60 	-26.47500038	0	0	0	0	0	1.0
61 	-26.47500038	0	0	0	0	0	1.0
62 	-26.47500038	0	0	0	0	0	1.0
[RightHandMiddle1]
59 	-95.32500458	0	0	-0.6481343508	-2.441427946	14.08905697	1.0
60 	-95.32500458	0	0	-0.712670207	-2.342973709	15.1928215	1.0
61 	-95.32500458	0	0	-0.7464476228	-2.298447371	15.75602055	1.0
62 	-95.32500458	0	0	-0.7521128654	-2.240988255	15.85107994	1.0
[RightHandMiddle2]
59 	-36.98199844	0	0	-0.2031195164	-1.357761621	17.0158577	1.0
60 	-36.98199844	0	0	-0.2045392692	-1.362410903	17.07585526	1.0
61 	-36.98199844	0	0	-0.2061632723	-1.367667675	17.1438942	1.0
62 	-36.98199844	0	0	-0.2069969326	-1.37038064	17.17887115	1.0
[RightHandMiddle3]
59 	-29.50900078	0	0	-0.2276599705	-1.437490463	18.02250862	1.0
60 	-29.50900078	0	0	-0.2291927785	-1.442188859	18.08363914	1.0
61 	-29.50900078	0	0	-0.2309134007	-1.447470546	18.15221405	1.0
62 	-29.50900078	0	0	-0.2318113744	-1.450185776	18.18760681	1.0
[RightHandMiddle4]
59 	-28.3390007	0	0.0009999999311	0	0	0	1.0
60 	-28.3390007	0	0.0009999999311	0	0	0	1.0
61 	-28.3390007	0	0.0009999999311	0	0	0	1.0
62 	-28.3390007	0	0.0009999999311	0	0	0	1.0
[RightHandIndex1]
59 	-91.08300018	-5.167999744	22.60099792	0.2185685337	1.213997841	6.196433067	1.0
60 	-91.08300018	-5.167999744	22.60099792	0.1747246981	1.031220317	7.434016228	1.0
61 	-91.08300018	-5.167999744	22.60099792	0.1505968273	0.9729858041	8.006081581	1.0
62 	-91.08300018	-5.167999744	22.60099792	0.1478956789	1.047556877	7.918704033	1.0
[RightHandIndex2]
59 	-36.76399994	0	0	-0.2002301812	-1.34826839	16.89323807	1.0
60 	-36.76399994	0	0	-0.2030360699	-1.35748899	17.01227188	1.0
61 	-36.76399994	0	0	-0.204444766	-1.36208427	17.0716362	1.0
62 	-36.76399994	0	0	-0.204622373	-1.362680554	17.07935905	1.0
[RightHandIndex3]
59 	-28.83100128	0	0	-0.04011724144	-0.6088004112	7.538655758	1.0
60 	-28.83100128	0	0	-0.04137742147	-0.6183030605	7.657045841	1.0
61 	-28.83100128	0	0	-0.04201478139	-0.6230637431	7.716274261	1.0
62 	-28.83100128	0	0	-0.04210094362	-0.6236569881	7.723659992	1.0
[RightHandIndex4]
59 	-23.92700005	0	0	0	0	0	1.0
60 	-23.92700005	0	0	0	0	0	1.0
61 	-23.92700005	0	0	0	0	0	1.0
62 	-23.92700005	0	0	0	0	0	1.0
[RightHandThumb1]
59 	-24.64799881	-15.72700024	26.82600021	-0.9944539666	0.8518292904	-3.473842382	1.0
60 	-24.64799881	-15.72700024	26.82600021	-0.3131328225	1.105429292	-2.775290251	1.0
61 	-24.64799881	-15.72700024	26.82600021	-0.1238879189	1.054028273	-2.560517311	1.0
62 	-24.64799881	-15.72700024	26.82600021	-0.34394297	0.8520473242	-2.763366222	1.0
[RightHandThumb2]
59 	-32.29800034	-18.64699936	18.64699936	22.24822617	-23.94992828	-24.13299751	1.0
60 	-32.29800034	-18.64699936	18.64699936	22.26347733	-23.69021225	-24.83444595	1.0
61 	-32.29800034	-18.64699936	18.64699936	22.27307129	-23.54899788	-25.20260811	1.0
62 	-32.29800034	-18.64699936	18.64699936	22.27151299	-23.56681061	-25.15376472	1.0
[RightHandThumb3]
59 	-26.52600098	-15.31399918	15.31399918	-14.36495209	-6.567308426	-11.13068104	1.0
60 	-26.52600098	-15.31399918	15.31399918	-14.51011658	-6.855024338	-11.24450874	1.0
61 	-26.52600098	-15.31399918	15.31399918	-14.58617496	-7.006271839	-11.29967499	1.0
62 	-26.52600098	-15.31399918	15.31399918	-14.58187962	-6.994539261	-11.30606937	1.0
[RightHandThumb4]
59 	-19.54599953	-11.28499985	11.28499985	0	0	0	1.0
60 	-19.54599953	-11.28499985	11.28499985	0	0	0	1.0
61 	-19.54599953	-11.28499985	11.28499985	0	0	0	1.0
62 	-19.54599953	-11.28499985	11.28499985	0	0	0	1.0
[LeftUpLeg]
59 	82.07800293	-67.51699829	-15.99599934	-10.81143188	16.37343216	7.690907001	1.0
60 	82.07800293	-67.51699829	-15.99599934	-10.55030823	16.32126236	7.494215012	1.0
61 	82.07800293	-67.51699829	-15.99599934	-10.28173447	16.24984741	7.357017517	1.0
62 	82.07800293	-67.51699829	-15.99599934	-10.05641937	16.18338394	7.252267838	1.0
[LeftLeg]
59 	0	-443.7049866	2.845999956	10.8786335	-2.96319747	3.604265928	1.0
60 	0	-443.7049866	2.845999956	10.06248951	-2.866924763	3.603121042	1.0
61 	0	-443.7049866	2.845999956	9.450240135	-2.254276514	3.698335409	1.0
62 	0	-443.7049866	2.845999956	9.083182335	-1.657138109	3.780791759	1.0
[LeftFoot]
59 	0	-444.2789917	-29.8219986	2.683463097	0.1852131784	-6.906794548	1.0
60 	0	-444.2789917	-29.8219986	3.040565014	0.7451580763	-6.857477188	1.0
61 	0	-444.2789917	-29.8219986	3.341305733	0.8061634898	-6.873967171	1.0
62 	0	-444.2789917	-29.8219986	3.467519045	0.8455169201	-6.899178505	1.0
[LeftToeBase]
59 	0	-87.28699493	107.1060028	-4.975534916	2.605810323e-06	-2.00831721e-07	1.0
60 	0	-87.28699493	107.1060028	-4.961751938	-8.811869066e-07	9.925759059e-07	1.0
61 	0	-87.28699493	107.1060028	-4.944433689	9.802377576e-09	-4.401177591e-07	1.0
62 	0	-87.28699493	107.1060028	-4.910353661	7.575883956e-06	-3.781530722e-06	1.0
[RightUpLeg]
59 	-82.07800293	-67.51699829	-15.99599934	-3.426307678	-9.995803833	6.697104931	1.0
60 	-82.07800293	-67.51699829	-15.99599934	-3.475248337	-10.01394272	6.386796474	1.0
61 	-82.07800293	-67.51699829	-15.99599934	-3.475497484	-10.03275585	6.062145233	1.0
62 	-82.07800293	-67.51699829	-15.99599934	-3.437976599	-10.05974674	5.741147041	1.0
[RightLeg]
59 	0	-443.7049866	2.861999989	10.66783905	-9.030434608	-7.676092148	1.0
60 	0	-443.7049866	2.861999989	10.21466541	-9.103725433	-7.360947132	1.0
61 	0	-443.7049866	2.861999989	9.862102509	-9.162332535	-7.052848816	1.0
62 	0	-443.7049866	2.861999989	9.591493607	-9.210959435	-6.762172222	1.0
[RightFoot]
59 	0	-444.2770081	-29.83799934	-4.242137909	-6.835384846	3.598505259	1.0
60 	0	-444.2770081	-29.83799934	-4.034762859	-6.248220444	3.454649687	1.0
61 	0	-444.2770081	-29.83799934	-3.836404562	-5.636827946	3.33561945	1.0
62 	0	-444.2770081	-29.83799934	-3.651262522	-5.030287743	3.241071224	1.0
[RightToeBase]
59 	0	-87.28699493	107.1060028	-7.854350567	-4.480741154e-06	6.122625962e-08	1.0
60 	0	-87.28699493	107.1060028	-7.792537212	-1.524685558e-06	-4.025604294e-09	1.0
61 	0	-87.28699493	107.1060028	-7.731349468	-2.985204674e-06	-9.777528476e-07	1.0
62 	0	-87.28699493	107.1060028	-7.671527386	1.55573764e-06	1.200246629e-06	1.0
[EndOfFile]
